<svg width="243" height="538" viewBox="0 0 243 538" fill="none" xmlns="http://www.w3.org/2000/svg">
<g filter="url(#filter0_d_127_332)">
<path d="M211.864 70.8181C213.001 109.105 191.519 142.826 163.831 144.388C136.144 145.95 112.735 114.76 111.598 76.4732C110.461 38.1861 132.445 21.3892 160.133 19.8276C187.821 18.266 210.727 32.531 211.864 70.8181Z" fill="#E9CFBD"/>
<g filter="url(#filter1_f_127_332)">
<path d="M201.794 69.9242C202.783 103.259 183.94 132.627 159.66 133.996C135.38 135.366 114.858 108.218 113.868 74.8833C112.878 41.5481 132.16 26.9157 156.44 25.5463C180.72 24.1769 200.804 36.589 201.794 69.9242Z" fill="#FCE2D0"/>
</g>
<g filter="url(#filter2_f_127_332)">
<path d="M153.584 59.4578C153.914 70.5695 147.632 80.3587 139.539 80.8152C131.446 81.2717 124.605 72.2225 124.275 61.1108C123.945 49.9991 130.372 45.1217 138.466 44.6652C146.559 44.2087 153.254 48.3461 153.584 59.4578Z" fill="#FFF7F2"/>
</g>
</g>
<g filter="url(#filter3_d_127_332)">
<path d="M139.952 135.568C141.474 167.275 124.001 194.485 100.856 194.896C77.7115 195.306 57.6595 168.762 56.1383 137.055C54.6171 105.348 72.7624 92.1537 95.907 91.7432C119.052 91.3327 138.431 103.862 139.952 135.568Z" fill="#E6ABAB"/>
<g filter="url(#filter4_f_127_332)">
<path d="M135.862 136.826C137.187 164.432 121.856 188.125 101.56 188.485C81.2641 188.845 63.6882 165.735 62.3637 138.13C61.0392 110.524 76.9552 99.0336 97.2512 98.6737C117.547 98.3137 134.538 109.22 135.862 136.826Z" fill="#F9C6C6"/>
</g>
<g filter="url(#filter5_f_127_332)">
<path d="M99.279 138.27C99.7205 147.472 94.6103 155.37 87.845 155.49C81.0796 155.61 75.221 147.907 74.7795 138.705C74.338 129.503 79.6433 125.673 86.4087 125.553C93.174 125.433 98.8375 129.068 99.279 138.27Z" fill="#FFF7F2"/>
</g>
</g>
<g filter="url(#filter6_d_127_332)">
<ellipse cx="172.088" cy="159.932" rx="48.833" ry="50.4182" transform="rotate(-49.0032 172.088 159.932)" fill="#DBAE8D"/>
<g filter="url(#filter7_f_127_332)">
<ellipse cx="167.517" cy="160.178" rx="42.4635" ry="43.8419" transform="rotate(-49.0032 167.517 160.178)" fill="#EDC09E"/>
</g>
<g filter="url(#filter8_f_127_332)">
<ellipse cx="154.166" cy="146.676" rx="11.1463" ry="11.5081" transform="rotate(-49.0032 154.166 146.676)" fill="white"/>
</g>
</g>
<g filter="url(#filter9_d_127_332)">
<path d="M123.864 230.818C125.001 269.105 103.519 302.826 75.8314 304.388C48.1437 305.95 24.7347 274.76 23.5979 236.473C22.4611 198.186 44.4453 181.389 72.133 179.828C99.8207 178.266 122.727 192.531 123.864 230.818Z" fill="#E9CFBD"/>
<g filter="url(#filter10_f_127_332)">
<path d="M113.794 229.924C114.783 263.259 95.9397 292.627 71.6597 293.996C47.3797 295.366 26.8579 268.218 25.8682 234.883C24.8784 201.548 44.1597 186.916 68.4397 185.546C92.7197 184.177 112.804 196.589 113.794 229.924Z" fill="#FCE2D0"/>
</g>
<g filter="url(#filter11_f_127_332)">
<path d="M65.5838 219.458C65.9137 230.57 59.6325 240.359 51.5391 240.815C43.4458 241.272 36.6052 232.223 36.2753 221.111C35.9454 209.999 42.3725 205.122 50.4658 204.665C58.5591 204.209 65.2539 208.346 65.5838 219.458Z" fill="#FFF7F2"/>
</g>
<path d="M65.5071 267C78.1742 323.284 46.7515 326.912 64.6718 380.168C82.5922 433.423 48.1008 437.637 65.5071 495" stroke="white"/>
</g>
<path d="M210.601 232.396C211.623 266.826 192.306 297.149 167.408 298.554C142.51 299.958 121.459 271.911 120.437 237.481C119.415 203.052 139.184 187.947 164.082 186.543C188.98 185.138 209.579 197.966 210.601 232.396Z" fill="#F5ECE5"/>
<g filter="url(#filter12_f_127_332)">
<path d="M193.631 227.879C194.433 254.902 179.158 278.708 159.475 279.818C139.793 280.928 123.157 258.922 122.355 231.899C121.553 204.876 137.183 193.015 156.865 191.905C176.547 190.795 192.828 200.856 193.631 227.879Z" fill="#FCF7F3"/>
</g>
<g filter="url(#filter13_f_127_332)">
<path d="M165.773 219.045C166.069 229.038 160.421 237.841 153.143 238.251C145.865 238.662 139.714 230.524 139.417 220.532C139.12 210.54 144.9 206.154 152.178 205.743C159.456 205.333 165.476 209.053 165.773 219.045Z" fill="#FFFDFC"/>
</g>
<g filter="url(#filter14_d_127_332)">
<path d="M165.507 301C178.174 357.284 146.751 360.912 164.672 414.168C182.592 467.423 148.101 471.637 165.507 529" stroke="white"/>
</g>
<g filter="url(#filter15_d_127_332)">
<path d="M160.999 300.061C161.548 298.244 163.222 297 165.121 297L167.008 297C168.676 297 170.177 298.014 170.8 299.561L171.987 302.512C173.009 305.053 170.298 307.483 167.884 306.191V306.191C167.019 305.728 165.981 305.728 165.116 306.191L164.956 306.277C162.387 307.652 159.438 305.236 160.279 302.447L160.999 300.061Z" fill="#EDE3DA"/>
</g>
<defs>
<filter id="filter0_d_127_332" x="107.556" y="19.713" width="108.351" height="132.731" filterUnits="userSpaceOnUse" color-interpolation-filters="sRGB">
<feFlood flood-opacity="0" result="BackgroundImageFix"/>
<feColorMatrix in="SourceAlpha" type="matrix" values="0 0 0 0 0 0 0 0 0 0 0 0 0 0 0 0 0 0 127 0" result="hardAlpha"/>
<feOffset dy="4"/>
<feGaussianBlur stdDeviation="2"/>
<feComposite in2="hardAlpha" operator="out"/>
<feColorMatrix type="matrix" values="0 0 0 0 0 0 0 0 0 0 0 0 0 0 0 0 0 0 0.25 0"/>
<feBlend mode="normal" in2="BackgroundImageFix" result="effect1_dropShadow_127_332"/>
<feBlend mode="normal" in="SourceGraphic" in2="effect1_dropShadow_127_332" result="shape"/>
</filter>
<filter id="filter1_f_127_332" x="88.8317" y="0.44519" width="137.999" height="158.601" filterUnits="userSpaceOnUse" color-interpolation-filters="sRGB">
<feFlood flood-opacity="0" result="BackgroundImageFix"/>
<feBlend mode="normal" in="SourceGraphic" in2="BackgroundImageFix" result="shape"/>
<feGaussianBlur stdDeviation="12.5" result="effect1_foregroundBlur_127_332"/>
</filter>
<filter id="filter2_f_127_332" x="109.263" y="29.6315" width="59.3331" height="66.2003" filterUnits="userSpaceOnUse" color-interpolation-filters="sRGB">
<feFlood flood-opacity="0" result="BackgroundImageFix"/>
<feBlend mode="normal" in="SourceGraphic" in2="BackgroundImageFix" result="shape"/>
<feGaussianBlur stdDeviation="7.5" result="effect1_foregroundBlur_127_332"/>
</filter>
<filter id="filter3_d_127_332" x="52.0492" y="91.7335" width="91.9954" height="111.167" filterUnits="userSpaceOnUse" color-interpolation-filters="sRGB">
<feFlood flood-opacity="0" result="BackgroundImageFix"/>
<feColorMatrix in="SourceAlpha" type="matrix" values="0 0 0 0 0 0 0 0 0 0 0 0 0 0 0 0 0 0 127 0" result="hardAlpha"/>
<feOffset dy="4"/>
<feGaussianBlur stdDeviation="2"/>
<feComposite in2="hardAlpha" operator="out"/>
<feColorMatrix type="matrix" values="0 0 0 0 0 0 0 0 0 0 0 0 0 0 0 0 0 0 0.25 0"/>
<feBlend mode="normal" in2="BackgroundImageFix" result="effect1_dropShadow_127_332"/>
<feBlend mode="normal" in="SourceGraphic" in2="effect1_dropShadow_127_332" result="shape"/>
</filter>
<filter id="filter4_f_127_332" x="37.2867" y="73.665" width="123.655" height="139.824" filterUnits="userSpaceOnUse" color-interpolation-filters="sRGB">
<feFlood flood-opacity="0" result="BackgroundImageFix"/>
<feBlend mode="normal" in="SourceGraphic" in2="BackgroundImageFix" result="shape"/>
<feGaussianBlur stdDeviation="12.5" result="effect1_foregroundBlur_127_332"/>
</filter>
<filter id="filter5_f_127_332" x="59.7538" y="110.55" width="54.5518" height="59.9412" filterUnits="userSpaceOnUse" color-interpolation-filters="sRGB">
<feFlood flood-opacity="0" result="BackgroundImageFix"/>
<feBlend mode="normal" in="SourceGraphic" in2="BackgroundImageFix" result="shape"/>
<feGaussianBlur stdDeviation="7.5" result="effect1_foregroundBlur_127_332"/>
</filter>
<filter id="filter6_d_127_332" x="118.345" y="110.41" width="107.487" height="107.044" filterUnits="userSpaceOnUse" color-interpolation-filters="sRGB">
<feFlood flood-opacity="0" result="BackgroundImageFix"/>
<feColorMatrix in="SourceAlpha" type="matrix" values="0 0 0 0 0 0 0 0 0 0 0 0 0 0 0 0 0 0 127 0" result="hardAlpha"/>
<feOffset dy="4"/>
<feGaussianBlur stdDeviation="2"/>
<feComposite in2="hardAlpha" operator="out"/>
<feColorMatrix type="matrix" values="0 0 0 0 0 0 0 0 0 0 0 0 0 0 0 0 0 0 0.25 0"/>
<feBlend mode="normal" in2="BackgroundImageFix" result="effect1_dropShadow_127_332"/>
<feBlend mode="normal" in="SourceGraphic" in2="effect1_dropShadow_127_332" result="shape"/>
</filter>
<filter id="filter7_f_127_332" x="114.262" y="107.116" width="106.51" height="106.125" filterUnits="userSpaceOnUse" color-interpolation-filters="sRGB">
<feFlood flood-opacity="0" result="BackgroundImageFix"/>
<feBlend mode="normal" in="SourceGraphic" in2="BackgroundImageFix" result="shape"/>
<feGaussianBlur stdDeviation="5" result="effect1_foregroundBlur_127_332"/>
</filter>
<filter id="filter8_f_127_332" x="127.812" y="120.372" width="52.7082" height="52.6071" filterUnits="userSpaceOnUse" color-interpolation-filters="sRGB">
<feFlood flood-opacity="0" result="BackgroundImageFix"/>
<feBlend mode="normal" in="SourceGraphic" in2="BackgroundImageFix" result="shape"/>
<feGaussianBlur stdDeviation="7.5" result="effect1_foregroundBlur_127_332"/>
</filter>
<filter id="filter9_d_127_332" x="19.5558" y="179.713" width="108.351" height="323.432" filterUnits="userSpaceOnUse" color-interpolation-filters="sRGB">
<feFlood flood-opacity="0" result="BackgroundImageFix"/>
<feColorMatrix in="SourceAlpha" type="matrix" values="0 0 0 0 0 0 0 0 0 0 0 0 0 0 0 0 0 0 127 0" result="hardAlpha"/>
<feOffset dy="4"/>
<feGaussianBlur stdDeviation="2"/>
<feComposite in2="hardAlpha" operator="out"/>
<feColorMatrix type="matrix" values="0 0 0 0 0 0 0 0 0 0 0 0 0 0 0 0 0 0 0.25 0"/>
<feBlend mode="normal" in2="BackgroundImageFix" result="effect1_dropShadow_127_332"/>
<feBlend mode="normal" in="SourceGraphic" in2="effect1_dropShadow_127_332" result="shape"/>
</filter>
<filter id="filter10_f_127_332" x="0.831699" y="160.445" width="137.999" height="158.601" filterUnits="userSpaceOnUse" color-interpolation-filters="sRGB">
<feFlood flood-opacity="0" result="BackgroundImageFix"/>
<feBlend mode="normal" in="SourceGraphic" in2="BackgroundImageFix" result="shape"/>
<feGaussianBlur stdDeviation="12.5" result="effect1_foregroundBlur_127_332"/>
</filter>
<filter id="filter11_f_127_332" x="21.2631" y="189.631" width="59.3331" height="66.2003" filterUnits="userSpaceOnUse" color-interpolation-filters="sRGB">
<feFlood flood-opacity="0" result="BackgroundImageFix"/>
<feBlend mode="normal" in="SourceGraphic" in2="BackgroundImageFix" result="shape"/>
<feGaussianBlur stdDeviation="7.5" result="effect1_foregroundBlur_127_332"/>
</filter>
<filter id="filter12_f_127_332" x="102.326" y="171.823" width="111.335" height="128.036" filterUnits="userSpaceOnUse" color-interpolation-filters="sRGB">
<feFlood flood-opacity="0" result="BackgroundImageFix"/>
<feBlend mode="normal" in="SourceGraphic" in2="BackgroundImageFix" result="shape"/>
<feGaussianBlur stdDeviation="10" result="effect1_foregroundBlur_127_332"/>
</filter>
<filter id="filter13_f_127_332" x="124.406" y="190.713" width="56.3778" height="62.5531" filterUnits="userSpaceOnUse" color-interpolation-filters="sRGB">
<feFlood flood-opacity="0" result="BackgroundImageFix"/>
<feBlend mode="normal" in="SourceGraphic" in2="BackgroundImageFix" result="shape"/>
<feGaussianBlur stdDeviation="7.5" result="effect1_foregroundBlur_127_332"/>
</filter>
<filter id="filter14_d_127_332" x="154.5" y="300.89" width="20" height="236.255" filterUnits="userSpaceOnUse" color-interpolation-filters="sRGB">
<feFlood flood-opacity="0" result="BackgroundImageFix"/>
<feColorMatrix in="SourceAlpha" type="matrix" values="0 0 0 0 0 0 0 0 0 0 0 0 0 0 0 0 0 0 127 0" result="hardAlpha"/>
<feOffset dy="4"/>
<feGaussianBlur stdDeviation="2"/>
<feComposite in2="hardAlpha" operator="out"/>
<feColorMatrix type="matrix" values="0 0 0 0 0 0 0 0 0 0 0 0 0 0 0 0 0 0 0.25 0"/>
<feBlend mode="normal" in2="BackgroundImageFix" result="effect1_dropShadow_127_332"/>
<feBlend mode="normal" in="SourceGraphic" in2="effect1_dropShadow_127_332" result="shape"/>
</filter>
<filter id="filter15_d_127_332" x="156.133" y="297" width="20.0757" height="17.6741" filterUnits="userSpaceOnUse" color-interpolation-filters="sRGB">
<feFlood flood-opacity="0" result="BackgroundImageFix"/>
<feColorMatrix in="SourceAlpha" type="matrix" values="0 0 0 0 0 0 0 0 0 0 0 0 0 0 0 0 0 0 127 0" result="hardAlpha"/>
<feOffset dy="4"/>
<feGaussianBlur stdDeviation="2"/>
<feComposite in2="hardAlpha" operator="out"/>
<feColorMatrix type="matrix" values="0 0 0 0 0 0 0 0 0 0 0 0 0 0 0 0 0 0 0.25 0"/>
<feBlend mode="normal" in2="BackgroundImageFix" result="effect1_dropShadow_127_332"/>
<feBlend mode="normal" in="SourceGraphic" in2="effect1_dropShadow_127_332" result="shape"/>
</filter>
</defs>
</svg>
